<svg width="12" height="13" viewBox="0 0 12 13" fill="none" xmlns="http://www.w3.org/2000/svg">
<path d="M5.10211 1.51609L5.69669 0.921513C5.94844 0.669755 6.35554 0.669755 6.60462 0.921513L11.8112 6.1254C12.0629 6.37715 12.0629 6.78425 11.8112 7.03333L6.60462 12.2399C6.35286 12.4917 5.94577 12.4917 5.69669 12.2399L5.10211 11.6453C4.84767 11.3909 4.85303 10.9757 5.11282 10.7267L8.34014 7.65201L0.642786 7.65201C0.286575 7.65201 0 7.36544 0 7.00923V6.15218C0 5.79597 0.286575 5.50939 0.642786 5.50939L8.34014 5.50939L5.11282 2.43474C4.85035 2.18566 4.845 1.77052 5.10211 1.51609Z" fill="#1C1D20"/>
</svg>
